<?xml version="1.0" standalone="no"?>
<!DOCTYPE svg PUBLIC "-//W3C//DTD SVG 20010904//EN"
 "http://www.w3.org/TR/2001/REC-SVG-20010904/DTD/svg10.dtd">
<svg version="1.0" xmlns="http://www.w3.org/2000/svg"
 width="1022.000000pt" height="1022.000000pt" viewBox="0 0 1022.000000 1022.000000"
 preserveAspectRatio="xMidYMid meet">
<metadata>
Created by potrace 1.14, written by Peter Selinger 2001-2017
</metadata>
<g transform="translate(0.000000,1022.000000) scale(0.100000,-0.100000)"
fill="#000000" stroke="none">
<path d="M8770 7290 c-718 -219 -1335 -408 -1373 -420 l-67 -21 2 -706 3 -706
987 -611 c543 -336 987 -615 987 -621 0 -5 -445 -158 -989 -338 l-990 -328 0
-486 c0 -384 3 -484 13 -480 6 2 621 190 1365 416 744 226 1359 414 1367 417
13 5 15 92 13 702 l-3 695 -985 617 c-542 339 -986 623 -987 631 -2 10 258
100 987 342 l990 328 0 484 c0 267 -3 485 -7 484 -5 -1 -595 -180 -1313 -399z"/>
<path d="M90 5425 c0 -1196 2 -2175 5 -2175 6 0 654 -149 677 -156 17 -5 18
79 20 1632 l3 1638 569 -1767 c314 -972 573 -1772 577 -1778 3 -6 256 -71 560
-145 305 -74 560 -136 567 -139 9 -3 12 507 12 2530 l0 2535 -386 0 -386 0 7
-2017 c4 -1110 5 -2016 2 -2013 -3 3 -274 876 -602 1940 -328 1064 -608 1970
-621 2013 l-25 77 -489 0 -490 0 0 -2175z"/>
<path d="M3520 5085 l0 -2516 34 33 c18 18 124 121 236 228 111 107 230 222
264 254 l61 60 5 1580 c4 1207 8 1573 16 1546 7 -19 37 -107 69 -195 31 -88
69 -198 85 -245 42 -125 90 -263 97 -280 3 -8 7 -17 8 -20 0 -3 9 -30 20 -60
10 -30 20 -59 21 -65 2 -5 22 -62 45 -125 22 -63 45 -128 49 -145 4 -16 42
-127 83 -245 41 -118 85 -244 97 -280 12 -36 25 -74 30 -85 5 -11 32 -87 60
-170 28 -82 67 -195 87 -250 19 -55 38 -109 42 -120 21 -66 20 -66 147 58 66
63 124 115 129 115 6 0 63 -51 128 -115 131 -126 131 -126 155 -43 6 19 29 87
52 150 22 63 43 122 45 130 2 8 16 49 30 90 51 143 156 445 160 460 3 8 25 74
51 145 25 72 50 144 54 160 7 26 119 351 164 473 8 23 15 43 15 45 0 1 2 9 5
17 47 127 58 157 61 170 2 8 31 94 65 190 34 96 69 198 78 225 16 47 17 -44
22 -1531 l5 -1580 51 -50 c59 -56 485 -467 520 -502 l24 -23 0 2516 0 2515
-396 0 -395 0 -13 -32 c-7 -18 -17 -42 -21 -53 -4 -11 -9 -24 -10 -30 -2 -9
-81 -224 -122 -330 -8 -22 -22 -60 -30 -85 -9 -25 -20 -56 -26 -70 -5 -14 -11
-29 -13 -35 -4 -18 -105 -288 -124 -336 -11 -25 -26 -68 -35 -95 -9 -27 -20
-58 -26 -69 -5 -11 -22 -58 -39 -105 -44 -128 -78 -223 -89 -245 -10 -21 -51
-133 -54 -150 -2 -5 -5 -14 -8 -20 -8 -13 -33 -89 -30 -93 1 -1 -5 -15 -13
-30 -7 -15 -28 -67 -45 -117 -17 -49 -35 -99 -41 -110 -5 -11 -20 -54 -35 -95
-14 -41 -30 -84 -35 -95 -5 -11 -21 -54 -36 -95 -15 -41 -32 -89 -38 -107
l-12 -31 -24 66 c-13 37 -25 69 -25 72 -1 11 -27 76 -41 103 -9 15 -12 27 -9
27 3 0 1 9 -5 21 -6 11 -13 28 -15 37 -5 19 -81 226 -95 257 -14 33 -52 139
-56 159 -2 10 -7 23 -12 30 -4 6 -14 29 -21 51 -19 58 -91 255 -106 290 -15
36 -49 138 -47 145 0 3 -8 20 -20 38 -11 17 -17 32 -15 32 3 0 -4 24 -15 53
-11 28 -31 84 -44 122 -14 39 -30 79 -35 90 -5 11 -20 52 -33 90 -13 39 -45
126 -71 195 -26 69 -58 159 -72 200 -14 41 -29 80 -33 85 -6 8 -50 133 -55
155 -1 3 -7 17 -13 33 -7 15 -16 38 -22 52 l-10 25 -395 0 -395 0 0 -2515z"/>
</g>
</svg>
